<svg xmlns="http://www.w3.org/2000/svg" viewBox="0 0 980 980" fill="none" shape-rendering="auto" aria-hidden="true" width="128" height="128"><!-- Generated by DiceBear (https://www.dicebear.com) --><metadata xmlns:rdf="http://www.w3.org/1999/02/22-rdf-syntax-ns#" xmlns:xsi="http://www.w3.org/2001/XMLSchema-instance" xmlns:dc="http://purl.org/dc/elements/1.1/" xmlns:dcterms="http://purl.org/dc/terms/"><rdf:RDF><rdf:Description><dc:title>Lorelei</dc:title><dc:creator>Lisa Wischofsky</dc:creator><dc:source xsi:type="dcterms:URI">https://www.figma.com/community/file/1198749693280469639</dc:source><dcterms:license xsi:type="dcterms:URI">https://creativecommons.org/publicdomain/zero/1.0/</dcterms:license><dc:rights>Remix of “Lorelei” (https://www.figma.com/community/file/1198749693280469639) by “Lisa Wischofsky”, licensed under “CC0 1.0” (https://creativecommons.org/publicdomain/zero/1.0/)</dc:rights></rdf:Description></rdf:RDF></metadata><defs><g id="eyes-variant01-2c3c839a"><path d="m337 47-1 7q-4 7-11 12l-18 5-18 2q-6 0-10 5l-6 8q-5 1-5-3 4-11 12-20 5-6 11-7l31-5q7-3 15-4M33 51c11-1 21 3 32 4q22 3 45 4l24 2q12 0 23 4 10 6 17 16 2 3 0 6h-4q-5-5-11-7l-12-1-28-1-22-1q-16 0-30-5-10-4-19-10l-13-8q-2-1-2-3" fill="#000000"/></g><g id="eyebrows-variant06-2c3c839a"><path d="M133 11q7 0 12 6 12 12 19 29 4 6 3 14 0 4-4 4l-4-7-17-22q2 8 0 14-3 5-9 5-8-1-14-6-6-4-12-5l-7 2-11-3-20-2-18 2q6-5 13-8 15-6 32-4l10-1q14 1 25 10l-4-19q-1-8 6-9m143 14q5 1 5 5-1 7-4 13 4-4 10-4 5 1 6 5 10-4 18-2 4 1 5 6l-10 5q-7 4-16 5l-7-4q-4 4-10 6-5 1-7-3v-9l-9 15-4 6q-3 1-4-2l2-11q5-12 14-23z" fill="#000000"/></g><g id="nose-variant06-2c3c839a"><path d="M54 97q0 13-10 23-5 5-14 6-9-1-19-5-6-2-11-6l5-4c9-1 17 3 25 4q6-1 9-6 7-8 15-12" fill="#000000"/></g><g id="mouth-happy16-2c3c839a"><path d="M33 13q15 0 31 5c23 5 46 13 69 16 22 2 42-8 65-2q9 2 14 11 6 7 3 15-3 11-13 17-12 6-24 8l-30 2q-15 1-29-2l-31-7-26-8q-12-2-23-8-9-4-17-10-11-9-8-23 4-13 19-14m146 26-38 5q0 14-5 28l-2 5 20 1 19-2V63zm-87-4q2 8-1 15-1 9-5 18l22 5 22 4q-3-17 3-34-20-2-41-8m95 3q0 10-3 20-2 9-6 17 9-1 18-6 8-4 11-13v-8l-8-8zM46 23v11l-4 20 18 6 22 7q0-18 4-34zm-8-1H28q-6 3-8 8l3 9q5 6 12 11-1-15 3-28M6 4q6-3 13-4-7 11-19 13 1-5 6-9" fill="#000000"/></g><g id="glasses-variant01-2c3c839a"><path d="M72 15q28-18 62-14 20 3 37 15 4-4 10 0 18 13 29 34 14 26 9 55 15-9 31-4c-2-34 16-69 44-87q17-13 39-12 14 0 27 6c3 2 6 0 9 3q14 9 23 26 12 23 8 50c-4 29-20 57-45 72q-22 14-47 11-20-3-35-17-14-12-19-31-3-6-9-8-15-4-26 5l-5 7q-12 30-39 46a99 99 0 0 1-57 15c-31-2-60-19-76-45A92 92 0 0 1 72 15m97 4q-31-14-63-7c-27 7-50 26-60 52a81 81 0 0 0 24 90c20 18 49 25 75 18q30-7 48-32c16-23 19-54 8-79q-9-20-27-33l-5-5zm187-3q-12-5-26-3-23 3-41 19a88 88 0 0 0-25 77q4 22 19 36 13 11 30 13 21 0 38-12c26-18 41-51 36-82q-3-22-19-38-5-2-8-6z" fill="#000000"/></g><g id="head-variant04-2c3c839a"><path d="M299 0a231 231 0 0 1 219 204q2 15 0 30 0 5-4 8-4-15-5-29-3-35-16-68A220 220 0 0 0 271 8q-64 6-117 44l-18 13a221 221 0 0 0-78 164q2 34 16 64l17-1q5 3 2 7l-6 1q-24 2-42 18-14 13-17 31-3 24 9 44 14 24 40 34 20 8 43 4 6-1 11 1v3q-7 7-18 7-25 3-48-8a86 86 0 0 1-47-58q-5-29 10-53 12-18 34-26-10-21-12-43-3-27-1-53 3-20 9-38a227 227 0 0 1 99-122c41-28 92-43 142-41" fill="#000000"/><path d="M338 13a220 220 0 0 1 171 200q1 15 5 29l-2 17v22q-4 8-5 15l-1 23-1 65q0 32-10 61-6 19-19 34-14 18-33 32-17 14-37 24l-22 14-12 8 9-3q-4 19-4 37-1 13 7 22 10 12 25 20 26 16 55 25 11 10 14 25 2 14-5 26-8 15-22 25-20 13-43 22-44 15-92 19-63 5-124-8-26-5-49-17-17-7-28-21-9-9-12-22-2-16 6-30 32-20 49-54 7-17 7-34 2-24 0-47-2-31-8-61 16 18 36 32 26 16 56 26 30 11 63 17 12 4 25 4l8-2q2-1 2-4-9 1-17-2-45-10-87-26-29-10-53-27-26-20-47-47-5-9-12-16v-4q-5-2-11-1-23 4-43-4-26-10-40-34-12-20-9-44 3-18 17-31 18-16 42-18l6-1q3-4-2-7l-17 1q-14-30-16-64 1-21 5-41 7-31 22-59 19-36 51-64l18-13a230 230 0 0 1 184-39" fill="#ffffff"/><path d="M512 281q3 6 2 13l1 29q2 40 0 80c-3 31-14 63-36 86q-38 43-93 63l1 8 1 35q2 8 8 13l26 19 32 20 24 12 4 3-18-4q-29-9-55-25-15-8-25-20-8-9-7-22l4-37-9 3 12-8 22-14q20-11 37-24 19-14 33-32 13-15 19-34 10-29 10-61l1-65 1-23q1-7 5-15M82 343c5 5 4 14 0 19l-3 7 7 6 19 9q-1 6-7 5-10-1-19-6-10-4-12-16 2-8 6-14 2-7-2-12 6-3 11 2m49 93q7 7 12 16 20 27 47 47 24 16 53 27a714 714 0 0 0 104 28q0 3-2 4l-8 2q-13-1-25-4a478 478 0 0 1-119-43q-20-14-36-32 6 30 8 61 2 23 0 47 0 17-7 34-17 34-49 54-6 5-15 8l10-9q20-17 33-40 11-15 15-32 5-29 2-58l-2-59 2-10q-16-18-23-41" fill="#000000"/><use transform="translate(159 232)" href="#eyes-variant01-2c3c839a"/><use transform="translate(164 126)" href="#eyebrows-variant06-2c3c839a"/><use transform="translate(359 274)" href="#nose-variant06-2c3c839a"/><use transform="translate(223 402)" href="#mouth-happy16-2c3c839a"/><use transform="translate(152 197)" href="#glasses-variant01-2c3c839a"/></g><g id="hair-variant15-2c3c839a"><path d="M395 151a380 380 0 0 1 208 40q4 3 6 8l15 33a1549 1549 0 0 1 56 141l4 14q4-32-6-63l-10-28 3 1q11 9 18 23 8 14 11 29c4 18 1 38-1 57l-1 35 4 45q1 20 4 39l5 35 8 40 8 48 4 28a214 214 0 0 1-11 101q-3 9-10 14l-4 1q-2-3-2-7 1-12-2-25-6-26-20-51-2 14-8 26-10 26-32 42-4 5-9 4l1-4 11-17 11-21q-21 24-49 41-28 16-61 17-13-2-25-6-10 0-19-3-38-9-77-11-49-3-97 11 6 8 14 12 3 2 2 5-5 3-9 2-19 1-37-8l-8-2q-18 5-37 5c-22-1-44-14-59-31v25q1 5-3 9-5 1-9-1-17-7-28-21l-15-19-10-14q-15-2-29-10-14-11-21-27-14-31-11-64 2-42 14-81l26-81 11-47 13-72q6-28 17-54 6-15 15-27l25-39q12-18 26-32a206 206 0 0 1 70-44q27-12 57-9 26-10 53-12M133 448l-5 21q-13 48-30 95-15 43-19 88-3 28 7 54 6 18 18 29 11 7 21 9-8-14-14-30a167 167 0 0 1-9-57q2-45 11-88l12-61 6-38z" fill="#000000"/><use transform="translate(131 168)" href="#head-variant04-2c3c839a"/><path d="M407 151a396 396 0 0 1 196 41q12 5 21 14 49 39 70 98 11 37 8 76l-3 4q-7 9-15 16l-5 2-6-2q-15 0-30-4-50-13-97-35-48-22-93-51-30-19-57-42l-1 26q-2 22-9 44a178 178 0 0 1-106 110l-4 100q-2 59 4 119 6 48 28 92 11 23 30 39 6 2 6 6-3 4-9 4c-17 1-34-7-49-14q-35-18-57-51-14-24-22-50-12-43-14-88-1-40 1-79l4-54-3-2q-23-8-35-30-17-26-16-57-1-36 12-68 25-62 73-107 30-28 71-41 21-6 41-4l9-3q28-8 57-9m-31 158-7 15q-16 35-44 61l-22 16-22 11-1 16 6-1q15-7 28-17 22-18 37-40 14-24 23-51z" fill="#000000"/></g><clipPath id="clip-2c3c839a"><rect width="980" height="980" rx="0" ry="0"/></clipPath></defs><g clip-path="url(#clip-2c3c839a)"><rect width="980" height="980" fill="#ffedd5"/><use transform="translate(76 3)" href="#hair-variant15-2c3c839a"/></g></svg>