<svg xmlns="http://www.w3.org/2000/svg" viewBox="0 0 180 180" fill="none" shape-rendering="auto" aria-hidden="true" width="128" height="128"><!-- Generated by DiceBear (https://www.dicebear.com) --><metadata xmlns:rdf="http://www.w3.org/1999/02/22-rdf-syntax-ns#" xmlns:xsi="http://www.w3.org/2001/XMLSchema-instance" xmlns:dc="http://purl.org/dc/elements/1.1/" xmlns:dcterms="http://purl.org/dc/terms/"><rdf:RDF><rdf:Description><dc:title>Bottts</dc:title><dc:creator>Pablo Stanley</dc:creator><dc:source xsi:type="dcterms:URI">https://bottts.com/</dc:source><dcterms:license xsi:type="dcterms:URI">https://bottts.com/</dcterms:license><dc:rights>Remix of “Bottts” (https://bottts.com/) by “Pablo Stanley”, licensed under “Free for personal and commercial use” (https://bottts.com/)</dc:rights></rdf:Description></rdf:RDF></metadata><defs><g id="sides-antenna01-e634a567"><mask id="sidesAntenna01-a" style="mask-type:luminance"><rect y="31" width="36" height="14" rx="4" fill="white"/><rect x="12" y="14" width="36" height="48" rx="4" fill="white"/><rect x="120" y="28" width="36" height="24" rx="4" fill="white"/><path fill="white" d="M5 11h2v20H5z"/></mask><g mask="url(#sidesAntenna01-a)"><path d="M-6 0h180v76H-6z" fill="#e45e4d"/><path fill="white" fill-opacity=".3" d="M-6 0h180v76H-6z"/><path fill="black" fill-opacity=".1" d="M-6 38h180v38H-6z"/></g><path fill="white" fill-opacity=".4" d="M5 11h2v20H5z"/><circle cx="6" cy="8" r="4" fill="#FFEA8F"/><circle cx="7" cy="7" r="2" fill="white"/></g><g id="top-antennaCrooked-e634a567"><mask id="topAntennaCrooked-a" style="mask-type:luminance"><path d="M47.54 34.98 43 45.59h-3.74l4.92-10.43-6.05-10.43 3.22-11.84 2.9.8-2.9 10.6z" fill="white"/><path fill="white" d="M30 39.59h24v13H30z"/></mask><g mask="url(#topAntennaCrooked-a)"><path d="M-8 .6H92v52H-8z" fill="#e45e4d"/><path d="M-8 6.6H92v52H-8z" fill="white" fill-opacity=".3"/><path fill="white" fill-opacity=".2" d="M30 39.59h24v13H30z"/></g><circle cx="42" cy="8.59" r="8" fill="#FFE65C"/><circle cx="45" cy="5.59" r="3" fill="white"/></g><g id="head-square01-e634a567"><mask id="headSquare01-a" style="mask-type:luminance"><rect width="130" height="120" rx="18" fill="white"/></mask><g mask="url(#headSquare01-a)"><path d="M-2-2h134v124H-2z" fill="#e45e4d"/></g></g><g id="mouth-bite-e634a567"><rect y="1" width="68" height="22" rx="5" fill="black" fill-opacity=".2"/><rect x="4" y="5" width="60" height="14" rx="2" fill="black" fill-opacity=".6"/><path fill-rule="evenodd" clip-rule="evenodd" d="m16 13 6-8H10zm12 0 6-8H22zm12 0 6-8H34zm12 0 6-8H46z" fill="#E1E6E8"/></g><g id="eyes-frame1-e634a567"><rect y="4" width="104" height="42" rx="4" fill="black" fill-opacity=".8"/><rect x="28" y="25" width="10" height="11" rx="2" fill="#8BDDFF"/><rect x="66" y="25" width="10" height="11" rx="2" fill="#8BDDFF"/><path fill-rule="evenodd" clip-rule="evenodd" d="M21 4h8L12 46H4z" fill="white" fill-opacity=".4"/></g><clipPath id="clip-e634a567"><rect width="180" height="180" rx="0" ry="0"/></clipPath></defs><g clip-path="url(#clip-e634a567)"><rect width="180" height="180" fill="#dbeafe"/><use transform="translate(6 66)" href="#sides-antenna01-e634a567"/><use transform="translate(49 -.6)" href="#top-antennaCrooked-e634a567"/><use transform="translate(25 44)" href="#head-square01-e634a567"/><use transform="translate(56 128)" href="#mouth-bite-e634a567"/><use transform="translate(38 76)" href="#eyes-frame1-e634a567"/></g></svg>