<svg xmlns="http://www.w3.org/2000/svg" viewBox="0 0 180 180" fill="none" shape-rendering="auto" aria-hidden="true" width="128" height="128"><!-- Generated by DiceBear (https://www.dicebear.com) --><metadata xmlns:rdf="http://www.w3.org/1999/02/22-rdf-syntax-ns#" xmlns:xsi="http://www.w3.org/2001/XMLSchema-instance" xmlns:dc="http://purl.org/dc/elements/1.1/" xmlns:dcterms="http://purl.org/dc/terms/"><rdf:RDF><rdf:Description><dc:title>Bottts</dc:title><dc:creator>Pablo Stanley</dc:creator><dc:source xsi:type="dcterms:URI">https://bottts.com/</dc:source><dcterms:license xsi:type="dcterms:URI">https://bottts.com/</dcterms:license><dc:rights>Remix of “Bottts” (https://bottts.com/) by “Pablo Stanley”, licensed under “Free for personal and commercial use” (https://bottts.com/)</dc:rights></rdf:Description></rdf:RDF></metadata><defs><g id="sides-antenna01-46e67d03"><mask id="sidesAntenna01-a" style="mask-type:luminance"><rect y="31" width="36" height="14" rx="4" fill="white"/><rect x="12" y="14" width="36" height="48" rx="4" fill="white"/><rect x="120" y="28" width="36" height="24" rx="4" fill="white"/><path fill="white" d="M5 11h2v20H5z"/></mask><g mask="url(#sidesAntenna01-a)"><path d="M-6 0h180v76H-6z" fill="#15a2a9"/><path fill="white" fill-opacity=".3" d="M-6 0h180v76H-6z"/><path fill="black" fill-opacity=".1" d="M-6 38h180v38H-6z"/></g><path fill="white" fill-opacity=".4" d="M5 11h2v20H5z"/><circle cx="6" cy="8" r="4" fill="#FFEA8F"/><circle cx="7" cy="7" r="2" fill="white"/></g><g id="top-pyramid-46e67d03"><mask id="topPyramid-a" style="mask-type:luminance"><path fill-rule="evenodd" clip-rule="evenodd" d="m42 8.6 32 44H10z" fill="white"/></mask><g mask="url(#topPyramid-a)"><path d="M-8 .6H92v52H-8z" fill="#15a2a9"/><path d="M-8 .6H92v52H-8z" fill="white" fill-opacity=".3"/><path fill="white" fill-opacity=".8" d="M42 4.59h30v48H42z"/></g></g><g id="texture-dirty02-46e67d03"><path fill-rule="evenodd" clip-rule="evenodd" d="M143 130.65c-3.19-17.34-9.55-2.58-24.85-5.63-6.76-1.35-1.3-7.25-6.34-9.8-4.26-2.17-10.06-.43-14.94-1.82-7.04-2.02-6.95-6.12-13.5-6.73-6.2-.58-12.7 1.33-18.97.61-11.8-1.35-6.96-19.22-15.82-22.38-8.85-3.15-23.43 2.3-25.34 11.23-1.86 8.71 10.57 41.12 10.57 41.12H143" fill="black" fill-opacity=".2"/><path fill-rule="evenodd" clip-rule="evenodd" d="M179 122.77c-51.24 0-56.58-25.8-81.8-37.61C72 73.34 49.9 103.9 41.44 74.2S33 137.07 33 137.07h146z" fill="black" fill-opacity=".1"/><path fill-rule="evenodd" clip-rule="evenodd" d="M184.58 9.18c-11.94-.98-5.04 10.8-9.75 10.8-6.97 0-2.1-7.97-10.58-7.78-2.22.06-4.95 1.94-5.12 4.5-.36 5.52 3.72 15.03-1.83 15.3-5.18.25-1.1-9.64-1.65-16.24-.3-3.77-4.18-6.75-6.97-6.75-7.57 0-1.68 15.7-7.13 15.7s-1.21-9.05-5.08-13.84c-4.5-5.57-19.3-8.3-8.75-10.87h57.15" fill="black" fill-opacity=".4"/></g><g id="head-square03-46e67d03"><mask id="headSquare03-a" style="mask-type:luminance"><path fill-rule="evenodd" clip-rule="evenodd" d="M0 18A18 18 0 0 1 18 0h94a18 18 0 0 1 18 18v27.15a40 40 0 0 1-2.28 13.31L110.24 108a18 18 0 0 1-16.98 12H36.74a18 18 0 0 1-16.98-12L2.28 58.45A40 40 0 0 1 0 45.15z" fill="white"/></mask><g mask="url(#headSquare03-a)"><path d="M-2-2h134v124H-2z" fill="#15a2a9"/><use transform="translate(-44 -7)" href="#texture-dirty02-46e67d03"/></g></g><g id="mouth-bite-46e67d03"><rect y="1" width="68" height="22" rx="5" fill="black" fill-opacity=".2"/><rect x="4" y="5" width="60" height="14" rx="2" fill="black" fill-opacity=".6"/><path fill-rule="evenodd" clip-rule="evenodd" d="m16 13 6-8H10zm12 0 6-8H22zm12 0 6-8H34zm12 0 6-8H46z" fill="#E1E6E8"/></g><g id="eyes-frame2-46e67d03"><rect x="8" y="10" width="88" height="36" rx="4" fill="black" fill-opacity=".8"/><rect x="28" y="21" width="10" height="17" rx="2" fill="#5EF2B8"/><rect x="66" y="21" width="10" height="17" rx="2" fill="#5EF2B8"/><path fill-rule="evenodd" clip-rule="evenodd" d="M83 10h5L76 46h-5z" fill="white" fill-opacity=".4"/></g><clipPath id="clip-46e67d03"><rect width="180" height="180" rx="0" ry="0"/></clipPath></defs><g clip-path="url(#clip-46e67d03)"><rect width="180" height="180" fill="#fce7f3"/><use transform="translate(6 66)" href="#sides-antenna01-46e67d03"/><use transform="translate(49 -.6)" href="#top-pyramid-46e67d03"/><use transform="translate(25 44)" href="#head-square03-46e67d03"/><use transform="translate(56 128)" href="#mouth-bite-46e67d03"/><use transform="translate(38 76)" href="#eyes-frame2-46e67d03"/></g></svg>