<svg xmlns="http://www.w3.org/2000/svg" viewBox="0 0 180 180" fill="none" shape-rendering="auto" aria-hidden="true" width="128" height="128"><!-- Generated by DiceBear (https://www.dicebear.com) --><metadata xmlns:rdf="http://www.w3.org/1999/02/22-rdf-syntax-ns#" xmlns:xsi="http://www.w3.org/2001/XMLSchema-instance" xmlns:dc="http://purl.org/dc/elements/1.1/" xmlns:dcterms="http://purl.org/dc/terms/"><rdf:RDF><rdf:Description><dc:title>Bottts</dc:title><dc:creator>Pablo Stanley</dc:creator><dc:source xsi:type="dcterms:URI">https://bottts.com/</dc:source><dcterms:license xsi:type="dcterms:URI">https://bottts.com/</dcterms:license><dc:rights>Remix of “Bottts” (https://bottts.com/) by “Pablo Stanley”, licensed under “Free for personal and commercial use” (https://bottts.com/)</dc:rights></rdf:Description></rdf:RDF></metadata><defs><g id="sides-cables01-c38aabfb"><path d="M32 12c-2.95 11.7-19.9 6.67-23.37 18-3.46 11.35 8.03 20 17.53 20" stroke="#2A3544" stroke-width="6" opacity=".9"/><path d="M144 55c8.4 3.49 20.1-7.6 16-16.5s-16-6.7-16-19.3" stroke="#2A3544" stroke-width="4" opacity=".9"/><mask id="sidesCables01-a" style="mask-type:luminance"><rect x="15" y="35" width="16" height="22" rx="2" fill="white"/><rect x="130" y="42" width="23" height="22" rx="2" fill="white"/><rect x="130" y="6" width="23" height="18" rx="2" fill="white"/></mask><g mask="url(#sidesCables01-a)"><path d="M-6 0h180v76H-6z" fill="#978d87"/><path d="M-6 0h180v76H-6z" fill="white" fill-opacity=".3"/></g></g><g id="top-horns-c38aabfb"><mask id="topHorns-a" style="mask-type:luminance"><path fill="white" d="M0 40.59h26v12H0zm84 .01H58v12h26z"/><path fill-rule="evenodd" clip-rule="evenodd" d="M8.52 14.34c0 7.84 5.39 20.7 13.72 27.03H3.36S-.16 23.27 5.43 14.7c.9-1.38 3.1-1.42 3.1-.36M76 14.6c.66 7.03-5.77 20.62-14 27h19s3.14-18.27-2-27c-1-1.7-3.14-1.45-3 0" fill="white"/></mask><g mask="url(#topHorns-a)"><path d="M-8 .6H92v52H-8z" fill="#978d87"/><path d="M-8 .6H92v52H-8z" fill="white" fill-opacity=".3"/><path fill="black" fill-opacity=".4" d="M-8 40.59H92v12H-8z"/><path fill-rule="evenodd" clip-rule="evenodd" d="M7.46 13.6h16.1v27H12.83c-7.45-7.86-5.36-27-5.36-27m69.35 0h7.75v27H73.82c5.75-7.81 3-27 3-27" fill="white" fill-opacity=".4"/></g></g><g id="head-square04-c38aabfb"><mask id="headSquare04-a" style="mask-type:luminance"><path fill-rule="evenodd" clip-rule="evenodd" d="M0 102V68.85a40 40 0 0 1 2.28-13.31L19.76 12A18 18 0 0 1 36.74 0h56.52a18 18 0 0 1 16.98 12l17.48 43.54a40 40 0 0 1 2.28 13.3V102a18 18 0 0 1-18 18H18a18 18 0 0 1-18-18" fill="white"/></mask><g mask="url(#headSquare04-a)"><path d="M-2-2h134v124H-2z" fill="#978d87"/></g></g><g id="mouth-diagram-c38aabfb"><rect width="68" height="24" rx="5" fill="black" fill-opacity=".2"/><rect x="4" y="4" width="60" height="16" rx="2" fill="black" fill-opacity=".8"/><path d="M5 13h11l2-4 3 7 4-8 2 9 3-11 3 10 3-3h15l3-4 2 7 3-3h4" stroke="#4EFAC9" stroke-width="2" stroke-linecap="round" stroke-linejoin="round"/></g><g id="eyes-roundFrame02-c38aabfb"><rect y="11" width="104" height="34" rx="17" fill="black" fill-opacity=".8"/><circle cx="29" cy="28" r="13" fill="#F1EEDA"/><circle cx="75" cy="28" r="13" fill="#F1EEDA"/><rect x="24" y="23" width="10" height="10" rx="2" fill="black" fill-opacity=".8"/><rect x="70" y="23" width="10" height="10" rx="2" fill="black" fill-opacity=".8"/></g><clipPath id="clip-c38aabfb"><rect width="180" height="180" rx="0" ry="0"/></clipPath></defs><g clip-path="url(#clip-c38aabfb)"><rect width="180" height="180" fill="#dbeafe"/><use transform="translate(6 66)" href="#sides-cables01-c38aabfb"/><use transform="translate(49 -.6)" href="#top-horns-c38aabfb"/><use transform="translate(25 44)" href="#head-square04-c38aabfb"/><use transform="translate(56 128)" href="#mouth-diagram-c38aabfb"/><use transform="translate(38 76)" href="#eyes-roundFrame02-c38aabfb"/></g></svg>